<svg xmlns="http://www.w3.org/2000/svg" xmlns:xlink="http://www.w3.org/1999/xlink" id="visual" version="1.1" viewBox="0 0 900 90"><path d="M0 83L21.5 83.5C43 84 86 85 128.8 85.8C171.7 86.7 214.3 87.3 257.2 83.3C300 79.3 343 70.7 385.8 68.5C428.7 66.3 471.3 70.7 514.2 70.8C557 71 600 67 642.8 65.3C685.7 63.7 728.3 64.3 771.2 68.8C814 73.3 857 81.7 878.5 85.8L900 90L900 0L878.5 0C857 0 814 0 771.2 0C728.3 0 685.7 0 642.8 0C600 0 557 0 514.2 0C471.3 0 428.7 0 385.8 0C343 0 300 0 257.2 0C214.3 0 171.7 0 128.8 0C86 0 43 0 21.5 0L0 0Z" fill="#f957b0"/><path d="M0 58L21.5 59.8C43 61.7 86 65.3 128.8 64.2C171.7 63 214.3 57 257.2 55.5C300 54 343 57 385.8 60C428.7 63 471.3 66 514.2 66C557 66 600 63 642.8 60.5C685.7 58 728.3 56 771.2 58.7C814 61.3 857 68.7 878.5 72.3L900 76L900 0L878.5 0C857 0 814 0 771.2 0C728.3 0 685.7 0 642.8 0C600 0 557 0 514.2 0C471.3 0 428.7 0 385.8 0C343 0 300 0 257.2 0C214.3 0 171.7 0 128.8 0C86 0 43 0 21.5 0L0 0Z" fill="#ff5289"/><path d="M0 53L21.5 53.2C43 53.3 86 53.7 128.8 54.8C171.7 56 214.3 58 257.2 56.5C300 55 343 50 385.8 48.2C428.7 46.3 471.3 47.7 514.2 50C557 52.3 600 55.7 642.8 55.7C685.7 55.7 728.3 52.3 771.2 49.2C814 46 857 43 878.5 41.5L900 40L900 0L878.5 0C857 0 814 0 771.2 0C728.3 0 685.7 0 642.8 0C600 0 557 0 514.2 0C471.3 0 428.7 0 385.8 0C343 0 300 0 257.2 0C214.3 0 171.7 0 128.8 0C86 0 43 0 21.5 0L0 0Z" fill="#ff5864"/><path d="M0 28L21.5 27.2C43 26.3 86 24.7 128.8 26.7C171.7 28.7 214.3 34.3 257.2 35.8C300 37.3 343 34.7 385.8 34.2C428.7 33.7 471.3 35.3 514.2 36.7C557 38 600 39 642.8 39.2C685.7 39.3 728.3 38.7 771.2 39.5C814 40.3 857 42.7 878.5 43.8L900 45L900 0L878.5 0C857 0 814 0 771.2 0C728.3 0 685.7 0 642.8 0C600 0 557 0 514.2 0C471.3 0 428.7 0 385.8 0C343 0 300 0 257.2 0C214.3 0 171.7 0 128.8 0C86 0 43 0 21.5 0L0 0Z" fill="#fb683f"/><path d="M0 10L21.5 11.5C43 13 86 16 128.8 16.7C171.7 17.3 214.3 15.7 257.2 14.7C300 13.7 343 13.3 385.8 12.7C428.7 12 471.3 11 514.2 13.3C557 15.7 600 21.3 642.8 24.2C685.7 27 728.3 27 771.2 25.3C814 23.7 857 20.3 878.5 18.7L900 17L900 0L878.5 0C857 0 814 0 771.2 0C728.3 0 685.7 0 642.8 0C600 0 557 0 514.2 0C471.3 0 428.7 0 385.8 0C343 0 300 0 257.2 0C214.3 0 171.7 0 128.8 0C86 0 43 0 21.5 0L0 0Z" fill="#eb7d0e"/></svg>